<?xml version="1.0" encoding="utf-8"?><svg xmlns="http://www.w3.org/2000/svg" xmlns:xlink="http://www.w3.org/1999/xlink"><symbol viewBox="0 0 71 37" id="Blaze" xmlns="http://www.w3.org/2000/svg"><path d="M55.046 21.245c3.917-2.941 5.806-5.462 5.596-5.952-.21-1.33-.98-3.081-2.308-3.361-.63.14-3.288 1.26-4.477 1.4.35-.35-.839-2.1-1.398-2.03-.35 0-1.819.84-2.029 2.17-.14.56.49 1.4.77 1.68-.35.42-.63.841-.98 1.261-1.119 1.4-2.378 2.661-3.707 3.852-.35.28-.7.63-1.119.84-.07.07-.42.35-.56.21-.559-.28 2.798-5.392 3.638-6.582.28-.42-.84-1.33-2.239-1.611-.28-.7-1.538-1.54-2.448-1.54-2.867 0-5.805 2.59-7.554 5.321-.28.42-.56.84-.909 1.19l-.42.421c-1.748 2.03-5.245 5.252-6.504 4.412-1.26-.84-.91-2.241.14-4.412 3.357-1.75 11.12-9.384 11.61-12.815.14-.84-1.748-2.801-3.287-2.59-3.008.42-13.01 13.584-12.59 18.136.21 2.241 3.147 4.412 4.406 4.412 1.679-.07 4.267-2.731 6.086-4.832v.42c.14 1.54 2.378 3.502 3.497 3.291 1.049-.14 2.378-2.45 2.867-3.01.14 1.4 1.47 2.94 2.728 3.08.35 0 .7-.14.98-.28.42-.28.839-.56 1.189-.91.909-.84 1.678-1.75 2.448-2.661 1.259-1.54 2.378-3.151 3.707-4.552.07-.07.14-.21.21-.28 0 0 .14-.21.21-.21 1.958.14 3.637-.91 4.686-1.12-2.308 2.8-4.617 5.252-6.155 6.232-1.959.21-2.029.98-2.169 1.54-.21 1.471.21 2.452.56 2.241.56-.28 1.539-.84 2.028-1.12 2.728.21 6.015.7 6.785 1.61 1.049 1.051.98-.56-.35-2.66-.42-.84-1.609-1.05-2.938-1.19zM37.77 5.63c1.609.07-5.316 8.964-8.603 11.625C30.986 13.403 36.931 5.56 37.77 5.63zm.98 15.546c-1.47 0 3.357-7.843 6.714-7.073-.14.14-5.735 7.073-6.715 7.073zm31.265.98c-1.05 1.121-1.889 1.961-3.498 2.311-.979.21-1.748.21-2.727-.07-.77-.28-1.4-.7-2.029-1.26-.84-.77-1.679-1.82-1.679-3.011 0-3.852 3.987-8.404 6.575-8.684 1.609-.21 4.127 1.891 4.057 3.502-.14 1.4-2.028 4.972-4.686 5.112-.84.14-2.099-.77-2.308-1.26-.35 1.05-.49 2.24.49 2.94 2.168 1.47 3.846.35 5.735-.91 1.818-1.12.909.42.07 1.33zm-5.876-4.201c1.959.84 4.896-4.272 3.987-4.272-1.119.14-3.637 3.362-3.987 4.272zM19.654 5.489c.07.07.07.07 0 0 .07.07.07.07 0 0zm.14.28s0 .07 0 0c0 .07 0 0 0 0zm0-.07c-.07 0-.07 0 0 0-.07 0-.07 0 0 0zm-1.189 1.47s0-.07 0 0c0-.07 0 0 0 0zm-.56.56l.14-.14-.14.14zm1.54-2.38s.07.07 0 0c.07.07 0 0 0 0zM17.766 8.08l-.14.14.14-.14zm1.679-1.75l-.07.07s0-.07.07-.07zm-.84-1.751c-.07 0-.07 0-.14-.07.07 0 .14.07.14.07zm-.56-.14h-.14c.07-.07.07-.07.14 0zm5.107-1.541c.07 0 .07 0 .14.07-.07 0-.07-.07-.14-.07zm-5.596 1.47h.14-.14zm1.539.42l-.07-.07c0 .07 0 .07.07.07zm.28.28l.07.07-.07-.07zm-.21-.21l.07.07-.07-.07zm.35.42l-.07-.07c.07 0 .07.07.07.07zm-.77-.63c.07 0 .07.07.14.07-.07-.07-.07-.07-.14-.07zm5.666-.7c.07.14.07.28.14.49-.07-.14-.14-.35-.14-.49zm-.56 2.661c0-.07.07-.07.07-.14 0 .07-.07.14-.07.14zm-.28.42c0 .07 0 .07 0 0 0 .07 0 .07 0 0zM22.172 8.5l.14-.14c-.07.07-.07.14-.14.14zm2.029-2.45l-.07.07.07-.07zm-.98 1.4c0 .07-.07.07-.07.14 0-.07.07-.07.07-.14zm-5.805-3.081c-.21 0-.35.07-.49.21.07-.07.21-.14.28-.21h.21zm6.925 1.19zm-.77-2.45c.14.07.21.14.35.21-.07-.07-.21-.14-.35-.21zm.91 2.03zM20.564 9.83c.07 0 .07-.07.14-.07-.07 0-.07.07-.14.07zm-2.308 1.47c-.07 0-.07.07-.14.07.07 0 .07 0 .14-.07zm.63-.35l-.07.07c0-.07.07-.07.07-.07zm-2.24-1.47c.07-.07.07-.14.14-.14l-.14.14zm2.729 1.19c.07 0 .07-.07.14-.07-.07 0-.14 0-.14.07zm2.448-1.82c-.07 0-.07.07-.14.07.07 0 .14 0 .14-.07zm-.56.49s-.07.07-.14.07c.07 0 .07-.07.14-.07zm-3.987-.63c-.07 0-.07.07 0 0-.07.07-.07 0 0 0zm2.728 1.54s0-.07 0 0c0-.07 0 0 0 0zm-1.748-5.812h.14-.14zm-1.47.21c-.07 0-.07.07-.14.07.07 0 .14 0 .14-.07zm6.715 7.493c-.14.14-.35.28-.49.35.14-.14.35-.28.49-.35zm.63-.56l.42-.42-.42.42zm-1.679 1.33c.14-.14.35-.21.49-.35-.14.14-.35.21-.49.35zm1.609-1.26zM14.339 7.1c.07-.07.14-.14.14-.21-.07.14-.07.14-.14.21zm.7-.77l-.14.14c.07-.07.14-.07.14-.14zm-1.47 1.61l-.21.21.21-.21zm-.7.84c.07-.07.14-.21.21-.28-.07.07-.14.21-.21.28zm2.449-2.73l.14-.14c0 .07-.07.07-.14.14zm1.05-1.051l.139-.14c0 .07-.07.14-.14.14zm-.28.35l.14-.14c-.07 0-.07.07-.14.14zm-.21.14c-.07.07-.14.07-.14.14l.14-.14zm-2.029 2.17zm-3.777 4.553c-.07.07-.14.21-.21.35.07-.14.14-.28.21-.35zm-.49.63c-.07.14-.14.21-.21.35.07-.14.14-.21.21-.35zM12.38 9.34c.07-.07.14-.21.21-.28-.07.07-.14.21-.21.28zm-2.028 2.52c.07-.07.14-.21.21-.28-.07.07-.14.21-.21.28zM12.1 9.69c-.07.07-.14.21-.21.28.07-.14.14-.21.21-.28zm-.49.56c-.07.07-.14.21-.209.28 0-.07.07-.14.21-.28zm-.559.63c-.07.07-.14.21-.21.28.07-.07.14-.14.21-.28zm10.842 2.451c.21-.14.35-.21.56-.35-.21.07-.42.21-.56.35zm3.217-2.661c.14-.14.28-.28.35-.42-.14.07-.21.28-.35.42zM27 6.82v-.56c.07.14.07.35 0 .56zM6.645 11.16c-.14.14-.49.35-.77.56.28-.14.63-.35.77-.56l.07-.07-.07.07zm20.074-3.08c-.07.14-.14.35-.21.49.07-.21.14-.35.21-.49zm-.56 1.12c-.07.14-.21.28-.28.49.14-.21.21-.35.28-.49zm.07-.07c.07-.14.14-.28.28-.49-.07.14-.21.28-.28.49zm.63-1.61c-.07.14-.07.35-.14.49.07-.14.14-.35.14-.49zm.14-.63c0 .21-.07.35-.07.49 0-.14.07-.28.07-.49zm-1.12 2.8c-.07.14-.21.28-.35.42.14-.14.21-.28.35-.42zM9.863 21.666c0 .07-.07.14-.07.21v-.14s.07 0 .07-.07zM24.551 4.72v-.28c-.07.07 0 .21 0 .28zM5.596 11.932a.53.53 0 0 1 .28-.14c-.14 0-.21.07-.28.14zm-.63.28c-.07.07-.21.07-.28.07.07 0 .21-.07.28-.07zm20.074-1.47l-.42.42.42-.42zm-8.813-.701c0-.07.07-.07.07-.14 0 .07-.07.14-.07.14zm6.575-2.101c0 .07-.07.07 0 0-.07.07 0 .07 0 0zm-5.176 3.711c-.07 0-.07 0 0 0 0 0 .07 0 .07-.07l-.07.07zm-10.911-.56c.07-.07.14-.14.21-.07-.07 0-.14 0-.21.07zm14.828-8.403c.42 0 .84.07 1.259.14-.42-.14-.84-.14-1.259-.14zm-2.518 3.991l-.07.07.07-.07zM7.834 25.027c-.77-.42-1.539-1.05-2.029-1.821.49.77 1.26 1.4 2.029 1.82zm7.204-18.698l.28-.28c-.07.07-.14.21-.28.28zm-4.476 5.252c.07-.14.14-.21.28-.35-.07.07-.21.21-.28.35zm2.518-3.08l.28-.28-.28.28zm2.658-2.802zm-1.68 1.75c.07-.14.21-.21.28-.28-.14.07-.21.14-.28.28zm.42-.49l.42-.42c-.14.07-.28.21-.42.42zm-4.406 5.253c.07-.14.14-.21.28-.35-.07.14-.21.21-.28.35zM12.87 8.78l-.28.28.28-.28zm-1.4-3.431c-.419.21-.838.42-1.188.63.35-.21.77-.42 1.189-.63zm2.38 2.31l-.28.281.28-.28zM12.1 9.692c.07-.14.21-.21.28-.35-.14.14-.21.21-.28.35zm-1.049 1.19c.07-.14.21-.21.28-.35-.07.14-.14.28-.28.35zm8.673-4.832c-.07.07-.21.14-.35.28.14-.14.28-.21.35-.28zM18.605 7.1c.14-.14.21-.28.35-.35-.14.14-.21.28-.35.35zm3.288 6.233c-.07 0-.07.07-.14.07.07-.07.07-.07.14-.07zm-4.896 3.011h-.98.98zm7.134-4.762s-.07.07 0 0c-.07.07 0 0 0 0zm-.63.56l.07-.07s-.07 0-.07.07zm1.12-.98c-.07 0-.07 0 0 0-.07 0-.07 0 0 0zm-2.239 1.82c0-.07.07-.07 0 0 .07-.07 0-.07 0 0zm-12.8-.14c.07-.14.14-.21.28-.35-.07.14-.21.28-.28.35zm13.36-.28l.07-.07-.07.07zm-12.73 8.054c.14-.35.28-.63.42-.98-.21.35-.35.63-.42.98zM11.82 9.97c-.07.14-.21.21-.28.35.14-.14.21-.28.28-.35zm8.743-.14zm6.435-3.011zm-.63-3.222c-.14-.35-.35-.63-.63-.98.21.28.42.63.63.98zm-6.365 6.653c-.14.14-.35.21-.49.35.14-.14.35-.28.49-.35zm.7-.49c.14-.07.28-.21.42-.28-.14.07-.28.14-.42.28zm1.119-.91c.14-.14.28-.21.35-.35-.07.14-.21.28-.35.35zm-.56.49c.14-.14.35-.28.49-.42-.21.14-.35.28-.49.42zm-4.057-.56c-.14.21-.28.35-.42.56.14-.21.28-.42.42-.56zm-.56.7c-.14.14-.209.28-.349.42.14-.07.21-.28.35-.42zm-.769-3.992l.21-.21c-.07.14-.14.14-.21.21zm1.819 6.162l.42-.21-.42.21zm1.679-.98c-.14.07-.28.21-.49.28.14-.07.28-.21.49-.28zm6.994-7.073c.14.35.28.63.42.98-.14-.35-.28-.7-.42-.98zm.42.91c.14.49.21.911.28 1.331-.07-.35-.14-.84-.28-1.33zM18.255 11.3c.21-.07.35-.21.56-.35-.21.14-.42.28-.56.35zM24.41 1.287c.35.28.7.56.979.84-.35-.28-.63-.56-.98-.84zM10.28 5.98zm13.29-2.87c-.07-.07-.21-.07-.28-.141.07 0 .21.07.28.14zM7.134 8.01c-.28.21-.56.49-.839.7.21-.21.49-.42.84-.7zm-.909.7c-.28.21-.49.49-.77.7.28-.21.56-.42.77-.7zm11.121-5.532c-.7.14-1.399.35-2.028.56.7-.21 1.329-.42 2.028-.56zM11.471 5.35zm11.331 2.59c.14-.14.21-.28.35-.35l-.35.35zm.35-5.042c-.14-.07-.21-.07-.35-.07.07 0 .21 0 .35.07zM4.616 10.391c.28-.35.56-.63.91-.98-.35.35-.7.7-.91.98zM23.571 7.03c.07-.14.21-.28.28-.42-.07.14-.14.28-.28.42zm-.07.07c-.07.14-.21.28-.28.35.14-.07.21-.21.28-.35zM6.994 11.02s-.07 0 0 0c-.07 0 0 0 0 0zm17.207-4.97c.07-.14.14-.28.14-.42-.07.14-.07.28-.14.42zm-.07.14c-.07.14-.14.21-.21.35.07-.14.14-.28.21-.35zM4.616 10.391c-.14.21-.35.42-.42.63.07-.21.21-.42.42-.63zm19.725-4.832c.07-.14.07-.21.07-.35 0 .14 0 .28-.07.35zm-2.798-2.871zm-2.938 1.89c.07 0 .07.07.14.07 0-.07-.07-.07-.14-.07zm-.28-.14c.07 0 .07 0 .14.07 0 0-.07 0-.14-.07zm-.07 0h-.14.14zm-.559-.07h.21-.21zm1.329.35c-.07 0-.07-.07-.14-.07 0 .07.07.07.14.07zm.07.07c.07 0 .07.07.07.07s-.07 0-.07-.07zm6.015 5.883l-.07.07c0-.07 0-.07.07-.07zm-8.183-6.092c-.07 0-.07.07-.14.07.07 0 .07-.07.14-.07zm-.7.63l.14-.14-.14.14zm6.085 3.221l.42-.42-.42.42zm-5.805-3.5c.07-.07.14-.07.14-.14l-.14.14zm2.868.14l-.07-.07.07.07zm5.176-.35c0 .14 0 .28-.07.42 0-.14.07-.28.07-.42zm-6.995-.35h-.07.07c-.07 0 0 0 0 0zm6.365-1.05c.14.14.28.28.35.42-.07-.14-.21-.28-.35-.42zm-4.896 3.36c.07-.07.14-.14.28-.21-.07 0-.14.07-.28.21zm6.505 3.432c0 .07-.07.07 0 0-.07.07 0 .07 0 0zm-7.904-1.89c-.14.14-.28.28-.35.49.14-.14.21-.35.35-.49zm9.093-.141c0-.07 0-.07 0 0 0-.07 0-.07 0 0zm-.21.56s0-.07.07-.07c-.07 0-.07 0-.07.07zm.35-1.12v-.07c.07 0 .07 0 0 .07zm-9.093.56c.07-.14.21-.21.28-.35-.07.14-.21.21-.28.35zm2.028-2.24s0 .07 0 0c0 .07 0 0 0 0zm-1.189 1.33l-.42.42.42-.42zm1.05-1.681s0-.07-.07-.07l.07.07zm-.07-.14l-.07-.07c.07 0 .07.07.07.07zm-.07-.14l-.07-.07.07.07zm.28.49zm-.07-.14zm6.433 3.64l.07-.07-.07.07zm.91-2.94c0 .21 0 .35-.07.56v.07c0 .14-.07.35-.07.49v.07c-.07.14-.07.35-.14.49s-.14.35-.21.49c0 0 0 .07-.07.07-.07.14-.14.35-.28.49l-.07.07c-.07.14-.21.28-.28.49v.07c-.07.14-.21.28-.35.42l-.07.07c-.139.14-.279.28-.349.421l-.07.07-.42.42-.07.07-.42.42-.069.07c-.14.14-.28.28-.49.42l-.07.07c-.14.14-.35.28-.49.35l-.07.07c-.139.14-.349.21-.489.35 0 0-.07 0-.07.07-.14.141-.35.211-.56.351-.07 0-.07.07-.07.07-.14.14-.349.21-.559.35l-.07.07c-.14.14-.35.21-.49.35-.629.35-1.258.77-1.888 1.05h.211c.35.07 1.19.28 1.958.981 1.819 1.68 2.239 3.502 2.449 5.322.21 2.031 0 4.062-.84 5.883-.91 2.17-2.518 4.061-4.336 5.532-1.959 1.54-4.197 2.66-6.575 3.361-2.168.63-4.547.98-6.785.63C2.798 36.581.42 35.321.42 32.94c0-2.031 1.958-3.362 3.637-4.202.21-.14.42-.21.63-.28 2.168-.98 4.895-1.89 7.204-2.591 1.189-.35 3.707-1.19 5.036-1.4.14 0 .63-.07.909 0 .14 0 .21.07.14.21-.21.14-.42.21-.7.35-1.468.7-3.287 1.4-4.616 1.96a63.946 63.946 0 0 0-4.966 2.311c-.14.07-.35.14-.49.28-.839.42-1.888.91-2.378 1.681-1.119 1.61 1.749 2.03 2.658 2.03a15.657 15.657 0 0 0 10.911-5.321c1.68-2.031 3.358-5.252 2.588-8.193a5.52 5.52 0 0 0-1.329-2.521c-.629-.7-1.538-.84-2.518-.84h-.979c-.14 0-.35 0-.56.07-.419.07-.839.21-1.398.35-.14.07-.28.07-.49.14-.14.07-.28.07-.49.14-.28 0-.42.07-.559.07-.28.07-.49.07-.7.07h-.28v.07c-.14.35-.279.63-.489.91-.07.07-.07.21-.14.28-.14.28-.21.49-.35.77-.07.07-.07.21-.14.28-.14.35-.28.63-.419.98v.07c-.14.351-.21.701-.35.981 0 .07 0 .07-.07.07v.14c-.07.14-.07.28-.14.42 0 .07 0 .14-.07.14 0 .14-.07.21-.07.35v.14c-.07.491-.14.981 0 1.401.07.35-.14.63-.42.77-.349.14-.838.14-1.188-.07-.77-.42-1.539-1.05-2.029-1.82-.14-.21-.21-.35-.28-.56-.07-.21-.14-.49-.21-.7v-.91c0-.141 0-.211.07-.351 0-.07 0-.14.07-.21 0-.07.07-.21.07-.28 0-.07.07-.14.07-.21 0-.14.07-.21.07-.35 0-.07.07-.14.07-.28.07-.07.07-.21.14-.35.07-.07.07-.21.14-.28.07-.14.07-.21.14-.351.07-.07.07-.21.14-.28l.14-.35c.07-.07.07-.21.14-.28.07-.14.14-.21.21-.35a.53.53 0 0 0 .14-.28c.07-.14.14-.21.21-.35.07-.07.14-.21.21-.28.07-.14.14-.21.209-.351.07-.07.14-.21.21-.28.07-.14.14-.21.21-.35.07-.07.14-.21.21-.28.07-.14.14-.21.21-.35.07-.14.14-.21.21-.35.07-.14.14-.21.209-.35.07-.14.14-.21.21-.35.07-.14.14-.211.28-.351.07-.14.14-.21.21-.35.07-.14.14-.21.28-.35.07-.14.14-.21.21-.35.069-.14.139-.21.279-.35.07-.07.14-.21.21-.28.07-.14.14-.21.28-.35.07-.07.14-.21.21-.28.07-.141.14-.211.28-.351.069-.07.139-.21.209-.28.07-.14.14-.21.28-.35.07-.07.14-.21.21-.28.07-.14.14-.21.28-.28.07-.07.14-.21.21-.28.07-.07.139-.21.279-.28.07-.07.14-.14.21-.28l.28-.281.21-.21.28-.28.209-.21c.07-.14.21-.21.28-.28.07-.07.14-.14.14-.21l.42-.42.14-.14.279-.28.14-.14.21-.21c.07-.07.14-.07.14-.14l.21-.211.14-.14.14-.14.14-.14c.07-.07.139-.07.139-.14.07-.07.07-.07.14-.07s.07-.07.14-.07c.14-.14.35-.21.49-.21h.698c.07 0 .07 0 .14.07.07 0 .07 0 .14.07.07 0 .07 0 .14.07.07 0 .07.07.14.07s.07.07.14.07.07.07.14.07.07.07.07.07c.07 0 .07.07.07.07l.069.07.07.07.07.07.07.07.07.07.07.07s0 .07.07.07c0 0 0 .07.07.07v.56s0 .07-.07.07c-.07.07-.21.14-.28.28l-.07.07-.28.28c-.07 0-.07.07-.14.07l-.35.35-.42.42-.139.14c-.07.141-.21.211-.28.351l-.14.14c-.14.14-.28.28-.35.49l-.07.07c-.14.21-.28.35-.419.56-.07.07-.07.14-.14.14-.14.14-.21.28-.35.42 0 .07-.07.07-.07.07-.699.911-1.398 1.962-2.098 3.012.91-.21 2.168-.7 3.497-1.4 0 0 .07 0 .07-.07l.42-.21c.07 0 .07-.07.14-.07.21-.07.35-.21.56-.35.07 0 .07-.07.07-.07.14-.07.28-.21.489-.281.07 0 .07-.07.14-.07.14-.14.35-.21.49-.35.21-.14.35-.28.559-.35.07-.07.07-.07.14-.07.14-.07.28-.21.42-.28.07 0 .07-.07.07-.07.14-.14.35-.28.49-.42.07 0 .07-.07.139-.07.14-.14.28-.21.35-.35l.14-.14.42-.421.07-.07c.14-.14.21-.28.349-.35.07-.07.07-.07.07-.14.07-.14.21-.28.28-.35 0 0 0-.07.07-.07.07-.14.21-.28.28-.42 0-.07.07-.07.07-.14.07-.14.14-.21.21-.35l.07-.07c.07-.14.139-.28.139-.42v-.07c.07-.141.07-.211.07-.351v-.14c0-.14.07-.28.07-.42v-.28c0-.14-.07-.35-.14-.49 0-.07-.07-.14-.07-.21-.07-.14-.21-.28-.35-.42-.07-.07-.21-.14-.35-.21-.07-.07-.21-.07-.28-.141-.07 0-.07 0-.139-.07-.14-.07-.28-.07-.35-.07-.35-.07-.77-.14-1.259-.14-.909 0-1.818.07-2.798.21-.49.07-.909.14-1.398.28-.7.14-1.4.35-2.029.56a23.44 23.44 0 0 0-3.847 1.611c-.42.21-.84.42-1.189.63A22.22 22.22 0 0 0 6.785 8.01c-.28.21-.56.49-.84.7-.28.21-.49.49-.77.7-.349.35-.629.7-.908.98-.14.211-.35.421-.42.631-.77 1.33-.28 1.47.56 1.26.07 0 .21-.07.28-.07.21-.07.419-.14.629-.28a.53.53 0 0 1 .28-.14c.35-.21.63-.42.769-.56l.07-.07c.07-.07.14-.07.21-.07h.07c.07.07.07.14.07.35 0 .56-.28 1.33-.77 1.961-.07.07-.14.21-.21.28l-.49.49c-.349.28-.769.49-1.258.56-.21.07-.49.07-.7 0-.63-.07-1.329-.56-1.818-1.19C.629 12.422 0 10.812 0 10.041 0 4.859 12.52-.813 20.564.097c.63.07 1.189.21 1.678.35.49.14.98.35 1.4.63.21.14.419.21.559.35.35.28.7.56.98.84.139.14.279.28.419.49.21.281.42.631.63.981.14.35.279.63.419.98.14.49.21.911.28 1.331.14-.07.14.07.14.21zM10.212 20.614c.14-.35.28-.63.42-.98-.21.35-.35.63-.42.98zm41.267 6.933c.14.28 0 .28-.21.28-2.378-.07-4.686.07-7.064.35-2.378.21-4.686.63-6.994 1.12a75.91 75.91 0 0 0-6.855 1.821c-1.12.35-2.238.77-3.287 1.19-.49.21-.98.42-1.47.56-.21.07-.349.14-.559.21h-.14c-.07.07-.14.07-.21.14 0 0-.07 0-.07.07 0 0-.07 0-.07.07 0 0-.07 0-.07.07 0 0-.07 0-.07.07-.21.141-.419.281-.629.491a.43.43 0 0 1-.49.07c-.21-.07-.35-.28-.42-.56 0-.14-.069-.28-.069-.42 0-.35 0-.7.07-1.05.07-.14.07-.21.14-.35.07-.14.14-.21.28-.35l.14-.141c.07-.07.14-.14.21-.14.28-.14.559-.28.839-.35.56-.21 1.119-.49 1.748-.63a67.42 67.42 0 0 1 3.497-1.12l1.75-.491 1.748-.42 1.818-.35 1.819-.35c2.378-.42 4.826-.7 7.274-.77 1.33-.07 2.728 0 4.057.14.49.07.98.14 1.469.28.42.07.909.14 1.329.35.14.07.35.14.49.28-.07-.14-.07-.07 0-.07z"/></symbol><symbol viewBox="0 0 129 129" id="arrow-b" xmlns="http://www.w3.org/2000/svg"><path d="M7.7 40.4c-.8-.8-1.2-1.8-1.2-2.9s.4-2.1 1.2-2.9c1.6-1.6 4.2-1.6 5.8 0l51 51 51-51c1.6-1.6 4.2-1.6 5.8 0 1.6 1.6 1.6 4.2 0 5.8L67.4 94.3c-1.6 1.6-4.2 1.6-5.8 0L7.7 40.4z" data-original="#000000" class="bactive-path"/></symbol><symbol viewBox="0 0 129 129" id="arrow-r" xmlns="http://www.w3.org/2000/svg"><path d="M40.4 121.3c-.8.8-1.8 1.2-2.9 1.2s-2.1-.4-2.9-1.2c-1.6-1.6-1.6-4.2 0-5.8l51-51-51-51c-1.6-1.6-1.6-4.2 0-5.8 1.6-1.6 4.2-1.6 5.8 0l53.9 53.9c1.6 1.6 1.6 4.2 0 5.8l-53.9 53.9z" data-original="#000000" class="cactive-path"/></symbol><symbol viewBox="0 0 19 19" id="phone-1" xmlns="http://www.w3.org/2000/svg"><path d="M18.946 15.605a1.455 1.455 0 0 0-.721-1.078l-4.677-2.693a1.468 1.468 0 0 0-1.768.234l-.92.921a.675.675 0 0 1-.903.05 26.628 26.628 0 0 1-2.125-1.911A26.637 26.637 0 0 1 5.92 9.002a.675.675 0 0 1 .05-.902l.922-.921a1.468 1.468 0 0 0 .233-1.767L4.432.734A1.455 1.455 0 0 0 3.355.013 1.454 1.454 0 0 0 2.126.43L.738 1.818c-.969.969-.984 2.741-.044 4.99.905 2.163 2.593 4.544 4.753 6.704s4.541 3.849 6.704 4.753c1.107.463 2.099.694 2.936.694.864 0 1.563-.246 2.055-.738l1.388-1.388c.325-.325.477-.773.416-1.228zm-5.705-3.239l4.677 2.693a.845.845 0 0 1 .42.626.844.844 0 0 1-.16.617l-6.216-3.547.253-.253a.853.853 0 0 1 1.026-.136zM3.274.622a.845.845 0 0 1 .626.419l2.693 4.677a.852.852 0 0 1-.136 1.027l-.232.232L2.658.78a.84.84 0 0 1 .616-.16zm13.433 17.165c-.77.77-2.344.737-4.319-.089-2.09-.874-4.401-2.515-6.507-4.62-2.105-2.105-3.746-4.416-4.62-6.507-.826-1.975-.858-3.55-.088-4.319l1.03-1.03 3.573 6.204-.24.24a1.289 1.289 0 0 0-.095 1.721 27.25 27.25 0 0 0 1.956 2.175c.7.7 1.432 1.358 2.175 1.956a1.288 1.288 0 0 0 1.721-.095l.219-.218 6.225 3.552-1.03 1.03z"/></symbol><symbol viewBox="0 0 12 20" id="phone-2" xmlns="http://www.w3.org/2000/svg"><path d="M8.926 0H2.225A2.125 2.125 0 0 0 .093 2.114v15.447c0 1.166.957 2.114 2.132 2.114h6.7a2.126 2.126 0 0 0 2.132-2.114V2.114A2.125 2.125 0 0 0 8.926 0zm1.427 17.561c0 .777-.64 1.41-1.427 1.41H2.225a1.42 1.42 0 0 1-1.427-1.41V2.114c0-.777.64-1.41 1.427-1.41h6.7a1.42 1.42 0 0 1 1.428 1.41v15.447zm-.725-15.49H1.523a.176.176 0 0 0-.176.176v13.69c0 .096.079.175.176.175h8.105a.176.176 0 0 0 .177-.176V2.246a.176.176 0 0 0-.177-.176zM9.452 15.76H1.7V2.423h7.753V15.76zm-3.876.646c-.594 0-1.077.483-1.077 1.077a1.078 1.078 0 1 0 1.077-1.077zm0 1.8a.725.725 0 1 1 0-1.45.725.725 0 0 1 0 1.45zM4.41 1.379c0-.071.07-.13.157-.13h2.017c.086 0 .156.059.156.13 0 .072-.07.13-.156.13H4.567c-.086 0-.157-.058-.157-.13z"/></symbol></svg>